<svg width="32" height="30" viewBox="0 0 32 30" fill="none" xmlns="http://www.w3.org/2000/svg">
<path d="M9.01634 17.0005H27.2397C27.8815 17.0005 28.434 16.5432 28.552 15.9127L31.0162 3.66797H5.01562" stroke="white" stroke-miterlimit="10" stroke-linejoin="round"/>
<path d="M13.685 26.3346C13.685 27.806 12.4891 29.0004 11.0173 29.0004C9.54591 29.0004 8.35156 27.806 8.35156 26.3346C8.35156 24.8632 9.54591 23.667 11.0173 23.667C12.4891 23.667 13.685 24.8632 13.685 26.3346Z" stroke="white" stroke-miterlimit="10" stroke-linejoin="round"/>
<path d="M28.349 26.3346C28.349 27.806 27.1547 29.0004 25.6833 29.0004C24.21 29.0004 23.0156 27.806 23.0156 26.3346C23.0156 24.8632 24.21 23.667 25.6833 23.667C27.1547 23.667 28.349 24.8632 28.349 26.3346Z" stroke="white" stroke-miterlimit="10" stroke-linejoin="round"/>
<path d="M0.351562 1H3.32685C3.93083 1 4.46037 1.40819 4.61609 1.98912L9.15764 19.0223C9.46719 20.1883 10.5247 21.0009 11.7342 21.0009H28.3516" stroke="white" stroke-miterlimit="10" stroke-linejoin="round"/>
</svg>
