<svg width="184" height="37" viewBox="0 0 184 37" fill="none" xmlns="http://www.w3.org/2000/svg">
<path fill-rule="evenodd" clip-rule="evenodd" d="M29.6937 6.68766L30.7996 15.0533L27.3447 15.0671L29.6937 6.68766ZM18.7862 15.2267C18.2758 15.2267 17.8072 15.1354 17.3774 14.9552C16.9476 14.7749 16.576 14.5138 16.2627 14.1703C15.949 13.8263 15.7025 13.4049 15.5249 12.9056C15.3474 12.4064 15.2585 11.835 15.2585 11.1916C15.2585 10.6096 15.339 10.0797 15.5001 9.60571C15.6611 9.13139 15.8908 8.72648 16.1876 8.38789C16.4848 8.05008 16.8421 7.78626 17.2635 7.60067C17.6853 7.4147 18.1597 7.32342 18.6865 7.32342C18.9691 7.32342 19.2241 7.33723 19.4515 7.36483C19.6792 7.39283 19.8951 7.43694 20.1002 7.49829C20.3058 7.55888 20.5082 7.6367 20.7049 7.73371C20.902 7.83073 21.1099 7.9446 21.3319 8.07765C21.5095 8.18847 21.6812 8.2441 21.8476 8.2441C21.9753 8.2441 22.0942 8.21072 22.2027 8.14438C22.3108 8.07766 22.4025 7.98601 22.4799 7.86983L23.2951 6.63284L23.2909 6.62861L26.5291 1.95517C27.2396 2.31407 27.9237 2.71784 28.5771 3.16302L24.671 17.1002L36.5436 17.0523C36.5712 17.4622 36.5854 17.8759 36.5854 18.2927C36.5854 18.6842 36.5731 19.0722 36.549 19.4576H25.2523V19.4622H24.9064C24.6736 19.4622 24.4739 19.5232 24.3074 19.6478C24.141 19.7701 24.0356 19.9112 23.9915 20.0749L22.3273 26.4474C22.2778 26.6419 22.2303 26.8524 22.1831 27.0771C22.136 27.2991 22.0892 27.5345 22.0447 27.7815C21.9949 27.5292 21.9366 27.2933 21.8699 27.0717C21.8035 26.8497 21.7395 26.6419 21.6785 26.4474L19.7318 20.0749C19.6708 19.8836 19.5627 19.7341 19.4047 19.6255C19.2467 19.5174 19.0442 19.4622 18.8003 19.4622H17.9683C17.7355 19.4622 17.5384 19.5259 17.3747 19.6505C17.211 19.7755 17.1029 19.9169 17.053 20.0749L15.0897 26.4447C15.0288 26.6526 14.9651 26.8719 14.8984 27.1047C14.8317 27.3347 14.7707 27.5817 14.7155 27.8451C14.6879 27.5901 14.6461 27.3432 14.5905 27.1077C14.5353 26.8746 14.4797 26.6526 14.4241 26.4447L12.7603 20.0749C12.7105 19.889 12.605 19.7421 12.4413 19.6282C12.278 19.5174 12.0728 19.4622 11.8285 19.4622H11.5233V19.4576H0.0363975C0.0122403 19.0722 0 18.6842 0 18.2927C0 17.8755 0.0141815 17.4617 0.0417897 17.0518L12.105 17.1002L9.2587 6.94495C11.5601 4.73745 14.6848 3.38085 18.1259 3.38085C19.6765 3.38085 21.1628 3.65653 22.5382 4.16114L21.593 5.52508C21.542 5.5036 21.4899 5.4829 21.437 5.46258C21.0627 5.3184 20.6524 5.20181 20.2088 5.1186C19.7651 5.03578 19.2908 4.99398 18.7862 4.99398C17.8099 4.99398 16.928 5.14662 16.1377 5.45146C15.3474 5.75668 14.6737 6.18381 14.1162 6.73252C13.5586 7.28468 13.1288 7.93618 12.8294 8.69349C12.5299 9.4531 12.3803 10.2821 12.3803 11.1863C12.3803 12.0766 12.5383 12.8972 12.8516 13.6572C13.1648 14.4141 13.5978 15.0687 14.1496 15.6204C14.7013 16.1726 15.3528 16.6048 16.1071 16.918C16.8617 17.2317 17.6826 17.3897 18.5695 17.3897C19.0634 17.3897 19.5262 17.3647 19.9564 17.3149C20.3863 17.2677 20.7912 17.1899 21.1708 17.0875C21.5508 16.9821 21.9086 16.849 22.2441 16.688C22.5796 16.5273 22.9013 16.336 23.2119 16.1113V10.9673H18.9023V12.5145C18.9023 12.6587 18.9522 12.7779 19.0523 12.8723C19.152 12.9666 19.2908 13.0138 19.4683 13.0138H20.6662V14.8605C20.4001 14.9713 20.1171 15.0602 19.8177 15.127C19.5182 15.1933 19.1742 15.2267 18.7862 15.2267ZM24.6383 1.13076L23.7281 2.44447C21.9995 1.73893 20.1079 1.35049 18.1259 1.35049C14.523 1.35049 11.22 2.63464 8.64901 4.77005L8.16816 3.05492C11.0674 1.12503 14.5484 0 18.2927 0C20.5236 0 22.6613 0.399523 24.6383 1.13076ZM23.9466 32.1888C22.2073 32.9193 20.2974 33.323 18.2927 33.323C16.341 33.323 14.4782 32.9403 12.776 32.2459L13.3884 31.5918H15.755L18.068 24.1901C18.1071 24.0739 18.1485 23.9489 18.1899 23.8132C18.2317 23.6774 18.2705 23.5302 18.3096 23.3776C18.3479 23.5302 18.3897 23.6774 18.4315 23.8132C18.4729 23.9489 18.512 24.0739 18.5507 24.1901L20.8304 31.5918H23.3756L23.3787 31.5822L23.9466 32.1888ZM11.304 33.8188C13.4291 34.8035 15.7969 35.3534 18.2927 35.3534C20.8407 35.3534 23.2552 34.7805 25.414 33.7567L26.3259 34.7314C23.901 35.9186 21.1747 36.5854 18.2927 36.5854C15.4621 36.5854 12.7822 35.9424 10.3902 34.7951L11.304 33.8188ZM10.0912 21.488L10.9685 24.3301L0.992355 24.2511C0.685215 23.3592 0.445173 22.4362 0.278373 21.488H10.0912ZM11.6679 26.5962L12.5678 29.5123L8.56618 33.7882C7.76861 33.2866 7.01207 32.7249 6.30384 32.1094L11.6679 26.5962ZM24.0647 29.3594L24.9635 26.4474L30.3843 32.0193C29.6815 32.6389 28.931 33.2053 28.1388 33.7122L24.0647 29.3594ZM25.6166 24.332L26.4942 21.488H36.307C36.1398 22.437 35.8998 23.3603 35.5922 24.253L25.6166 24.332ZM31.6109 5.75282C33.9875 8.27629 35.6556 11.475 36.2955 15.0311L32.8395 15.0453L31.6109 5.75282ZM34.7533 26.2818C33.9853 27.8612 32.9967 29.3137 31.8276 30.599L27.6814 26.3378L34.7533 26.2818ZM4.8506 30.6999C3.64044 29.3896 2.6197 27.9018 1.83133 26.2802L9.09457 26.3378L4.8506 30.6999ZM0.289869 15.0303C0.949781 11.3653 2.70097 8.07922 5.19529 5.52163L3.93606 15.0453L0.289869 15.0303ZM7.08223 6.68766L9.43084 15.0671L5.976 15.0533L7.08223 6.68766Z" fill="white"/>
<path d="M53.7514 29.6064H54.2614V31.1644H53.7165V30.1655H50.6777V31.1644H50.1328V29.6064H50.5381C50.6497 29.504 50.736 29.3583 50.7966 29.1697C50.8572 28.9814 50.912 28.6927 50.9607 28.3035C51.0097 27.9151 51.0688 27.2781 51.139 26.3931H53.7514V29.6064ZM51.6697 26.9169C51.6279 27.5412 51.585 28.0266 51.5405 28.3737C51.4964 28.7207 51.4461 28.986 51.3901 29.1697C51.3345 29.3537 51.2625 29.4994 51.1739 29.6064H53.1716V26.9169H51.6697ZM58.592 28.2931C58.592 28.3445 58.5874 28.4166 58.5782 28.5098H55.3576C55.4044 28.8591 55.549 29.1398 55.791 29.3515C56.0333 29.5635 56.3312 29.6693 56.6847 29.6693C56.9459 29.6693 57.1775 29.6122 57.38 29.4983C57.5824 29.384 57.7442 29.2222 57.8654 29.0129H58.4874C58.329 29.404 58.0912 29.7077 57.7745 29.9243C57.4578 30.141 57.0946 30.2491 56.6847 30.2491C56.1402 30.2491 55.684 30.0604 55.3162 29.6835C54.9481 29.3062 54.7641 28.8368 54.7641 28.2759C54.7641 27.7149 54.9481 27.2467 55.3162 26.8717C55.684 26.4967 56.1402 26.3096 56.6847 26.3096C57.2484 26.3096 57.707 26.5001 58.0609 26.8824C58.4149 27.2639 58.592 27.7344 58.592 28.2931ZM56.6847 26.8752C56.4612 26.8752 56.258 26.9192 56.0739 27.0078C55.8899 27.0964 55.7376 27.2233 55.6165 27.3886C55.4953 27.5538 55.4141 27.7436 55.3719 27.958H57.9911C57.9494 27.739 57.8677 27.547 57.7466 27.3817C57.6258 27.2164 57.4743 27.0907 57.2929 27.0044C57.1112 26.9181 56.9083 26.8752 56.6847 26.8752ZM61.4771 26.3096C62.0403 26.3096 62.5047 26.4955 62.8705 26.8682C63.2359 27.2406 63.4189 27.7111 63.4189 28.2793C63.4189 28.8426 63.2359 29.312 62.8705 29.687C62.5047 30.0616 62.0403 30.2491 61.4771 30.2491C60.9088 30.2491 60.4406 30.0535 60.0729 29.6624V31.5133H59.479V26.3931H59.8843L60.0027 26.9733C60.1799 26.7636 60.3954 26.6002 60.6492 26.484C60.9031 26.3675 61.1787 26.3096 61.4771 26.3096ZM61.4349 29.6762C61.8352 29.6762 62.1661 29.5436 62.4268 29.2782C62.6876 29.0129 62.818 28.68 62.818 28.2793C62.818 27.8786 62.6876 27.5458 62.4268 27.2804C62.1661 27.0147 61.8352 26.8824 61.4349 26.8824C61.0346 26.8824 60.7025 27.0158 60.4394 27.2839C60.1764 27.5515 60.0449 27.8832 60.0449 28.2793C60.0449 28.5401 60.1044 28.7774 60.2229 28.9917C60.3417 29.2061 60.5081 29.3737 60.7225 29.4945C60.9368 29.6156 61.1742 29.6762 61.4349 29.6762ZM67.8473 28.2931C67.8473 28.3445 67.8426 28.4166 67.8334 28.5098H64.6133C64.6597 28.8591 64.8042 29.1398 65.0462 29.3515C65.2885 29.5635 65.5865 29.6693 65.9404 29.6693C66.2011 29.6693 66.4327 29.6122 66.6352 29.4983C66.838 29.384 66.9998 29.2222 67.121 29.0129H67.7426C67.5842 29.404 67.3469 29.7077 67.0302 29.9243C66.7134 30.141 66.3503 30.2491 65.9404 30.2491C65.3955 30.2491 64.9393 30.0604 64.5715 29.6835C64.2034 29.3062 64.0197 28.8368 64.0197 28.2759C64.0197 27.7149 64.2034 27.2467 64.5715 26.8717C64.9393 26.4967 65.3955 26.3096 65.9404 26.3096C66.5041 26.3096 66.9627 26.5001 67.3166 26.8824C67.6705 27.2639 67.8473 27.7344 67.8473 28.2931ZM65.9404 26.8752C65.7169 26.8752 65.5133 26.9192 65.3292 27.0078C65.1452 27.0964 64.9929 27.2233 64.8718 27.3886C64.7506 27.5538 64.6693 27.7436 64.6271 27.958H67.2468C67.2046 27.739 67.1233 27.547 67.0021 27.3817C66.881 27.2164 66.7299 27.0907 66.5481 27.0044C66.3664 26.9181 66.1639 26.8752 65.9404 26.8752ZM71.1583 28.2092C71.3493 28.2793 71.5019 28.3955 71.6162 28.5588C71.73 28.7218 71.7868 28.9059 71.7868 29.1106C71.7868 29.4132 71.6764 29.6647 71.4551 29.8649C71.2339 30.0654 70.9582 30.1655 70.6277 30.1655H68.7345V26.3931H70.6065C70.9187 26.3931 71.1726 26.4829 71.3681 26.6623C71.5637 26.8414 71.6614 27.0707 71.6614 27.3502C71.6614 27.476 71.6404 27.5949 71.5986 27.7065C71.5564 27.8184 71.4985 27.9174 71.4241 28.0033C71.3493 28.0895 71.2607 28.1582 71.1583 28.2092ZM71.0748 27.4549C71.0748 27.3016 71.0234 27.1792 70.921 27.0883C70.8183 26.9975 70.6859 26.9522 70.5226 26.9522H69.3144V27.9511H70.5226C70.6905 27.9511 70.8244 27.9055 70.9245 27.815C71.0245 27.7241 71.0748 27.6041 71.0748 27.4549ZM70.5579 29.6064C70.674 29.6064 70.7803 29.5819 70.8758 29.5332C70.9713 29.4841 71.0441 29.4178 71.0954 29.3342C71.1468 29.2502 71.1725 29.1559 71.1725 29.0512C71.1725 28.9461 71.1468 28.8506 71.0954 28.7648C71.0441 28.6785 70.9713 28.6122 70.8758 28.5658C70.7803 28.519 70.6718 28.496 70.551 28.496H69.3144V29.6064H70.5579ZM73.7289 26.3931H75.461V30.1655H74.8743V28.7195H73.9314L73.0372 30.1655H72.3808L73.3241 28.6355C73.0771 28.5565 72.8816 28.4212 72.737 28.2302C72.5928 28.0397 72.5203 27.8161 72.5203 27.5596C72.5203 27.2245 72.6346 26.9461 72.8627 26.7252C73.0909 26.504 73.3796 26.3931 73.7289 26.3931ZM73.7777 28.1466H74.8743V26.966H73.7777C73.5821 26.966 73.4237 27.0208 73.303 27.1301C73.1818 27.2394 73.1212 27.3817 73.1212 27.5561C73.1212 27.731 73.1818 27.8729 73.303 27.9822C73.4237 28.0918 73.5821 28.1466 73.7777 28.1466ZM79.2541 26.3931H79.8338V30.1655H79.2541V28.496H77.2356V30.1655H76.6554V26.3931H77.2356V27.9369H79.2541V26.3931ZM83.6338 26.3931H84.2136V30.1655H83.6338V28.496H81.6153V30.1655H81.0352V26.3931H81.6153V27.9369H83.6338V26.3931ZM86.931 27.5807C87.3268 27.5807 87.6504 27.7007 87.9019 27.9408C88.1535 28.1804 88.2789 28.4937 88.2789 28.8802C88.2789 29.2571 88.1535 29.5658 87.9019 29.8055C87.6504 30.0455 87.3268 30.1655 86.931 30.1655H85.4149V26.3931H85.995V27.5807H86.931ZM88.9637 26.3931H89.5573V30.1655H88.9637V26.3931ZM86.854 29.6344C87.1009 29.6344 87.2988 29.5646 87.4476 29.4251C87.5967 29.2851 87.6711 29.1026 87.6711 28.8763C87.6711 28.6505 87.5967 28.4668 87.4476 28.3246C87.2988 28.1827 87.1009 28.1118 86.854 28.1118H85.995V29.6344H86.854ZM94.2863 28.2931C94.2863 28.3445 94.2817 28.4166 94.2721 28.5098H91.052C91.0984 28.8591 91.2429 29.1398 91.4852 29.3515C91.7272 29.5635 92.0251 29.6693 92.379 29.6693C92.6398 29.6693 92.8718 29.6122 93.0743 29.4983C93.2767 29.384 93.4385 29.2222 93.5596 29.0129H94.1816C94.0229 29.404 93.7855 29.7077 93.4688 29.9243C93.1521 30.141 92.789 30.2491 92.379 30.2491C91.8342 30.2491 91.3779 30.0604 91.0102 29.6835C90.6424 29.3062 90.4584 28.8368 90.4584 28.2759C90.4584 27.7149 90.6424 27.2467 91.0102 26.8717C91.3779 26.4967 91.8342 26.3096 92.379 26.3096C92.9427 26.3096 93.4013 26.5001 93.7553 26.8824C94.1092 27.2639 94.2863 27.7344 94.2863 28.2931ZM92.379 26.8752C92.1555 26.8752 91.9519 26.9192 91.7679 27.0078C91.5842 27.0964 91.4316 27.2233 91.3104 27.3886C91.1892 27.5538 91.1079 27.7436 91.0661 27.958H93.6855C93.6437 27.739 93.562 27.547 93.4408 27.3817C93.32 27.2164 93.1685 27.0907 92.9868 27.0044C92.8054 26.9181 92.6026 26.8752 92.379 26.8752ZM99.4276 30.1655L98.1349 28.4749H97.5974V30.1655H97.0034V26.3931H97.5974V27.9231H98.1423L99.3087 26.3931H100.028L98.6518 28.2022L100.168 30.1655H99.4276ZM103.884 26.3931H104.359V30.1655H103.863L103.8 29.5926C103.623 29.802 103.408 29.9638 103.154 30.0781C102.9 30.1923 102.622 30.2491 102.319 30.2491C101.765 30.2491 101.302 30.0616 100.929 29.687C100.557 29.312 100.37 28.8426 100.37 28.2793C100.37 27.7161 100.557 27.2467 100.929 26.8717C101.302 26.4967 101.765 26.3096 102.319 26.3096C102.627 26.3096 102.907 26.3675 103.161 26.484C103.415 26.6002 103.63 26.7636 103.807 26.9733L103.884 26.3931ZM101.373 29.2748C101.636 29.5424 101.968 29.6762 102.368 29.6762C102.769 29.6762 103.099 29.5436 103.36 29.2782C103.621 29.0129 103.751 28.68 103.751 28.2793C103.751 27.8786 103.621 27.5458 103.36 27.2804C103.099 27.0147 102.769 26.8824 102.368 26.8824C101.968 26.8824 101.636 27.0158 101.373 27.2839C101.11 27.5515 100.978 27.8832 100.978 28.2793C100.978 28.6751 101.11 29.0071 101.373 29.2748ZM107.551 26.3096C108.115 26.3096 108.579 26.4955 108.945 26.8682C109.31 27.2406 109.493 27.7111 109.493 28.2793C109.493 28.8426 109.31 29.312 108.945 29.687C108.579 30.0616 108.115 30.2491 107.551 30.2491C106.983 30.2491 106.515 30.0535 106.147 29.6624V31.5133H105.554V26.3931H105.959L106.077 26.9733C106.254 26.7636 106.47 26.6002 106.723 26.484C106.977 26.3675 107.253 26.3096 107.551 26.3096ZM107.509 29.6762C107.909 29.6762 108.24 29.5436 108.501 29.2782C108.762 29.0129 108.892 28.68 108.892 28.2793C108.892 27.8786 108.762 27.5458 108.501 27.2804C108.24 27.0147 107.909 26.8824 107.509 26.8824C107.109 26.8824 106.777 27.0158 106.514 27.2839C106.251 27.5515 106.119 27.8832 106.119 28.2793C106.119 28.5401 106.179 28.7774 106.297 28.9917C106.416 29.2061 106.583 29.3737 106.797 29.4945C107.011 29.6156 107.249 29.6762 107.509 29.6762ZM113.174 26.3931V26.9311H111.77V30.1655H111.191V26.9311H109.786V26.3931H113.174ZM115.41 27.5807C115.806 27.5807 116.129 27.7007 116.38 27.9408C116.632 28.1804 116.758 28.4937 116.758 28.8802C116.758 29.2571 116.632 29.5658 116.38 29.8055C116.129 30.0455 115.806 30.1655 115.41 30.1655H113.894V26.3931H114.474V27.5807H115.41ZM117.442 26.3931H118.036V30.1655H117.442V26.3931ZM115.333 29.6344C115.579 29.6344 115.777 29.5646 115.926 29.4251C116.076 29.2851 116.15 29.1026 116.15 28.8763C116.15 28.6505 116.076 28.4668 115.926 28.3246C115.777 28.1827 115.579 28.1118 115.333 28.1118H114.474V29.6344H115.333ZM123.841 26.3931H124.169V30.1655H123.61V27.4691L121.41 30.1655H121.068V26.3931H121.633V29.0684L123.841 26.3931ZM129.974 26.3931H130.302V30.1655H129.743V27.4691L127.543 30.1655H127.201V26.3931H127.767V29.0684L129.974 26.3931ZM133.466 28.1746C133.811 28.361 133.983 28.6681 133.983 29.0964C133.983 29.32 133.922 29.519 133.799 29.6939C133.675 29.8687 133.503 30.0048 133.282 30.1026C133.06 30.2004 132.812 30.2491 132.538 30.2491C132.137 30.2491 131.808 30.1467 131.549 29.9419C131.29 29.7368 131.145 29.4622 131.113 29.1175H131.651C131.688 29.2943 131.785 29.4331 131.944 29.5332C132.102 29.6333 132.3 29.6835 132.538 29.6835C132.789 29.6835 132.996 29.6252 133.159 29.5087C133.322 29.3921 133.404 29.2387 133.404 29.0477C133.404 28.8706 133.335 28.7241 133.198 28.6076C133.06 28.4914 132.887 28.4331 132.677 28.4331H132.118V27.9511H132.677C132.873 27.9511 133.03 27.9009 133.149 27.8008C133.268 27.7007 133.327 27.5715 133.327 27.4131C133.327 27.2406 133.255 27.101 133.11 26.994C132.966 26.887 132.775 26.8333 132.538 26.8333C132.328 26.8333 132.153 26.8801 132.014 26.9733C131.874 27.0661 131.786 27.1919 131.748 27.3502H131.21C131.229 27.1451 131.298 26.9637 131.416 26.8054C131.535 26.647 131.693 26.5247 131.892 26.4388C132.09 26.3525 132.31 26.3096 132.552 26.3096C132.938 26.3096 133.257 26.4097 133.509 26.6098C133.76 26.81 133.886 27.0615 133.886 27.364C133.886 27.7276 133.746 27.9975 133.466 28.1746ZM138.07 29.6064H138.58V31.1644H138.035V30.1655H134.996V31.1644H134.452V29.6064H134.857C134.968 29.504 135.055 29.3583 135.115 29.1697C135.176 28.9814 135.23 28.6927 135.279 28.3035C135.328 27.9151 135.388 27.2781 135.457 26.3931H138.07V29.6064ZM135.988 26.9169C135.947 27.5412 135.903 28.0266 135.859 28.3737C135.815 28.7207 135.765 28.986 135.709 29.1697C135.653 29.3537 135.581 29.4994 135.492 29.6064H137.49V26.9169H135.988ZM142.91 28.2931C142.91 28.3445 142.906 28.4166 142.897 28.5098H139.676C139.723 28.8591 139.867 29.1398 140.11 29.3515C140.352 29.5635 140.65 29.6693 141.004 29.6693C141.264 29.6693 141.496 29.6122 141.698 29.4983C141.901 29.384 142.063 29.2222 142.184 29.0129H142.806C142.647 29.404 142.41 29.7077 142.093 29.9243C141.777 30.141 141.413 30.2491 141.004 30.2491C140.459 30.2491 140.003 30.0604 139.635 29.6835C139.267 29.3062 139.083 28.8368 139.083 28.2759C139.083 27.7149 139.267 27.2467 139.635 26.8717C140.003 26.4967 140.459 26.3096 141.004 26.3096C141.567 26.3096 142.026 26.5001 142.38 26.8824C142.734 27.2639 142.91 27.7344 142.91 28.2931ZM141.004 26.8752C140.78 26.8752 140.576 26.9192 140.392 27.0078C140.209 27.0964 140.056 27.2233 139.935 27.3886C139.814 27.5538 139.732 27.7436 139.691 27.958H142.31C142.268 27.739 142.186 27.547 142.065 27.3817C141.944 27.2164 141.793 27.0907 141.611 27.0044C141.43 26.9181 141.227 26.8752 141.004 26.8752ZM144.349 26.3931H146.822V30.1655H146.228V26.91H144.845L144.65 28.8173C144.598 29.3154 144.471 29.6682 144.266 29.8756C144.061 30.0827 143.753 30.1862 143.344 30.1862H143.239V29.6275H143.372C143.586 29.6275 143.749 29.5658 143.86 29.4423C143.972 29.3188 144.042 29.1221 144.07 28.8518L144.349 26.3931ZM150.79 26.3931H151.119V30.1655H150.559V27.4691L148.359 30.1655H148.017V26.3931H148.582V29.0684L150.79 26.3931ZM153.305 26.3931H155.037V30.1655H154.45V28.7195H153.507L152.613 30.1655H151.957L152.9 28.6355C152.653 28.5565 152.457 28.4212 152.313 28.2302C152.168 28.0397 152.096 27.8161 152.096 27.5596C152.096 27.2245 152.211 26.9461 152.439 26.7252C152.667 26.504 152.956 26.3931 153.305 26.3931ZM153.354 28.1466H154.45V26.966H153.354C153.158 26.966 153 27.0208 152.878 27.1301C152.758 27.2394 152.697 27.3817 152.697 27.5561C152.697 27.731 152.758 27.8729 152.878 27.9822C153 28.0918 153.158 28.1466 153.354 28.1466Z" fill="white"/>
<path d="M57.4652 14.2425H62.2335V19.9779C61.525 20.4949 60.7685 20.8747 59.9643 21.1173C59.1664 21.3535 58.3206 21.4716 57.4269 21.4716C56.2843 21.4716 55.2502 21.296 54.3247 20.9449C53.3991 20.5875 52.6076 20.0928 51.9501 19.4608C51.2926 18.8289 50.7852 18.0789 50.4277 17.2107C50.0702 16.3426 49.8915 15.3947 49.8915 14.367C49.8915 13.3265 50.0607 12.3723 50.399 11.5041C50.7437 10.636 51.232 9.88918 51.8639 9.26362C52.4959 8.63806 53.2587 8.14974 54.1523 7.79867C55.0524 7.44759 56.0577 7.27205 57.1684 7.27205C57.7429 7.27205 58.2791 7.31992 58.777 7.41567C59.2749 7.50504 59.7345 7.6327 60.1558 7.79867C60.5771 7.95825 60.9632 8.14974 61.3143 8.37316C61.6654 8.59657 61.9846 8.84232 62.2718 9.11042L61.4388 10.3935C61.3111 10.5977 61.1452 10.7222 60.9409 10.7669C60.7366 10.8116 60.5132 10.7605 60.2707 10.6137C60.0409 10.4732 59.8143 10.3488 59.5908 10.2403C59.3738 10.1254 59.1408 10.0264 58.8919 9.94343C58.6429 9.86045 58.3716 9.79662 58.078 9.75194C57.7844 9.70725 57.4461 9.68491 57.0631 9.68491C56.4184 9.68491 55.8343 9.79662 55.3109 10.02C54.7875 10.2434 54.3406 10.5594 53.9704 10.9679C53.6066 11.3765 53.3257 11.868 53.1278 12.4425C52.9299 13.017 52.831 13.6585 52.831 14.367C52.831 15.133 52.9395 15.8192 53.1565 16.4256C53.3736 17.0256 53.68 17.5331 54.0757 17.948C54.4715 18.3629 54.9438 18.6789 55.4928 18.8959C56.0481 19.113 56.6641 19.2215 57.3408 19.2215C57.8003 19.2215 58.2089 19.1768 58.5663 19.0874C58.9302 18.9917 59.2844 18.864 59.6291 18.7044V16.3682H58.0589C57.8738 16.3682 57.7269 16.3203 57.6184 16.2245C57.5163 16.1224 57.4652 15.9947 57.4652 15.8415V14.2425ZM68.9284 14.0032C69.3944 14.0032 69.7965 13.9457 70.1349 13.8308C70.4732 13.7095 70.7508 13.5468 70.9679 13.3425C71.1849 13.1319 71.3445 12.8861 71.4466 12.6052C71.5487 12.3244 71.5998 12.018 71.5998 11.6861C71.5998 11.0286 71.3796 10.5179 70.9391 10.1541C70.5051 9.79023 69.8412 9.60831 68.9476 9.60831H67.4539V14.0032H68.9284ZM75.6595 21.3184H73.0648C72.5796 21.3184 72.2286 21.1332 72.0115 20.763L69.3689 16.5022C69.2603 16.3362 69.1391 16.215 69.005 16.1384C68.8774 16.0618 68.6859 16.0235 68.4305 16.0235H67.4539V21.3184H64.5814V7.42525H68.9476C69.9178 7.42525 70.7476 7.52738 71.437 7.73164C72.1264 7.92952 72.6913 8.20719 73.1318 8.56465C73.5722 8.92211 73.8946 9.34979 74.0988 9.84768C74.3031 10.3392 74.4052 10.8818 74.4052 11.4754C74.4052 11.935 74.3382 12.3723 74.2042 12.7872C74.0765 13.1957 73.8882 13.5691 73.6392 13.9074C73.3903 14.2457 73.0839 14.5457 72.7201 14.8075C72.3562 15.0692 71.9413 15.2798 71.4753 15.4394C71.6604 15.5415 71.8328 15.666 71.9924 15.8128C72.152 15.9532 72.2956 16.1224 72.4232 16.3203L75.6595 21.3184ZM79.9091 9.67534V13.2468H84.5434V15.4202H79.9091V19.0683H85.8647V21.3184H77.0175V7.42525H85.8647V9.67534H79.9091ZM90.9053 9.67534V13.2468H95.5395V15.4202H90.9053V19.0683H96.8608V21.3184H88.0136V7.42525H96.8608V9.67534H90.9053ZM110.911 7.42525V21.3184H109.427C109.204 21.3184 109.015 21.2833 108.862 21.213C108.709 21.1364 108.559 21.0088 108.412 20.83L101.49 12.0212C101.509 12.2446 101.522 12.4648 101.528 12.6818C101.541 12.8989 101.547 13.0999 101.547 13.2851V21.3184H99.0098V7.42525H100.523C100.644 7.42525 100.746 7.43163 100.829 7.44439C100.918 7.45078 100.998 7.47312 101.068 7.51142C101.139 7.54334 101.206 7.58802 101.269 7.64547C101.333 7.70292 101.403 7.77952 101.48 7.87526L108.451 16.7224C108.425 16.4799 108.406 16.2469 108.393 16.0235C108.38 15.7937 108.374 15.5766 108.374 15.3724V7.42525H110.911ZM136.981 7.42525L132.672 21.3184H130.077L127.233 12.2318C127.189 12.1042 127.144 11.9637 127.099 11.8105C127.055 11.6573 127.013 11.4946 126.975 11.3222C126.936 11.4946 126.895 11.6573 126.85 11.8105C126.806 11.9637 126.761 12.1042 126.716 12.2318L123.844 21.3184H121.239L116.94 7.42525H119.353C119.602 7.42525 119.81 7.48269 119.976 7.59759C120.148 7.71249 120.26 7.86569 120.311 8.05719L122.465 15.8894C122.516 16.1064 122.567 16.3426 122.618 16.598C122.676 16.8469 122.73 17.1118 122.781 17.3927C122.838 17.1054 122.899 16.8373 122.963 16.5884C123.027 16.3394 123.097 16.1064 123.174 15.8894L125.682 8.05719C125.733 7.8976 125.842 7.75398 126.008 7.62632C126.18 7.49227 126.388 7.42525 126.63 7.42525H127.473C127.722 7.42525 127.923 7.48589 128.076 7.60717C128.235 7.72207 128.354 7.87207 128.43 8.05719L130.929 15.8894C131.006 16.0937 131.076 16.3171 131.14 16.5597C131.204 16.7958 131.264 17.048 131.322 17.3161C131.373 17.048 131.421 16.7958 131.465 16.5597C131.516 16.3171 131.568 16.0937 131.619 15.8894L133.773 8.05719C133.818 7.89122 133.926 7.74441 134.098 7.61674C134.271 7.48908 134.478 7.42525 134.721 7.42525H136.981ZM151.649 14.367C151.649 15.3819 151.477 16.3235 151.132 17.1916C150.794 18.0597 150.312 18.8097 149.687 19.4417C149.067 20.0736 148.321 20.5715 147.446 20.9354C146.572 21.2928 145.601 21.4716 144.535 21.4716C143.469 21.4716 142.499 21.2928 141.625 20.9354C140.75 20.5715 140 20.0736 139.375 19.4417C138.749 18.8097 138.264 18.0597 137.919 17.1916C137.581 16.3235 137.412 15.3819 137.412 14.367C137.412 13.3521 137.581 12.4137 137.919 11.552C138.264 10.6839 138.749 9.93386 139.375 9.30192C140 8.66998 140.75 8.17528 141.625 7.81781C142.499 7.45397 143.469 7.27205 144.535 7.27205C145.601 7.27205 146.572 7.45397 147.446 7.81781C148.321 8.17528 149.067 8.67317 149.687 9.31149C150.312 9.94343 150.794 10.6935 151.132 11.5616C151.477 12.4233 151.649 13.3585 151.649 14.367ZM148.71 14.367C148.71 13.6393 148.614 12.9882 148.423 12.4137C148.231 11.8329 147.954 11.3414 147.59 10.9392C147.232 10.5307 146.795 10.2211 146.278 10.0105C145.767 9.79343 145.186 9.68491 144.535 9.68491C143.884 9.68491 143.3 9.79343 142.783 10.0105C142.266 10.2211 141.826 10.5307 141.462 10.9392C141.104 11.3414 140.83 11.8329 140.638 12.4137C140.447 12.9882 140.351 13.6393 140.351 14.367C140.351 15.1011 140.447 15.7586 140.638 16.3394C140.83 16.9139 141.104 17.4022 141.462 17.8044C141.826 18.2065 142.266 18.5161 142.783 18.7331C143.3 18.9438 143.884 19.0491 144.535 19.0491C145.186 19.0491 145.767 18.9438 146.278 18.7331C146.795 18.5161 147.232 18.2065 147.59 17.8044C147.954 17.4022 148.231 16.9139 148.423 16.3394C148.614 15.7586 148.71 15.1011 148.71 14.367ZM167.171 14.367C167.171 15.3819 166.999 16.3235 166.654 17.1916C166.316 18.0597 165.834 18.8097 165.208 19.4417C164.589 20.0736 163.842 20.5715 162.968 20.9354C162.093 21.2928 161.123 21.4716 160.057 21.4716C158.991 21.4716 158.021 21.2928 157.146 20.9354C156.272 20.5715 155.522 20.0736 154.896 19.4417C154.271 18.8097 153.786 18.0597 153.441 17.1916C153.103 16.3235 152.933 15.3819 152.933 14.367C152.933 13.3521 153.103 12.4137 153.441 11.552C153.786 10.6839 154.271 9.93386 154.896 9.30192C155.522 8.66998 156.272 8.17528 157.146 7.81781C158.021 7.45397 158.991 7.27205 160.057 7.27205C161.123 7.27205 162.093 7.45397 162.968 7.81781C163.842 8.17528 164.589 8.67317 165.208 9.31149C165.834 9.94343 166.316 10.6935 166.654 11.5616C166.999 12.4233 167.171 13.3585 167.171 14.367ZM164.232 14.367C164.232 13.6393 164.136 12.9882 163.944 12.4137C163.753 11.8329 163.475 11.3414 163.111 10.9392C162.754 10.5307 162.317 10.2211 161.8 10.0105C161.289 9.79343 160.708 9.68491 160.057 9.68491C159.406 9.68491 158.822 9.79343 158.305 10.0105C157.788 10.2211 157.347 10.5307 156.984 10.9392C156.626 11.3414 156.352 11.8329 156.16 12.4137C155.969 12.9882 155.873 13.6393 155.873 14.367C155.873 15.1011 155.969 15.7586 156.16 16.3394C156.352 16.9139 156.626 17.4022 156.984 17.8044C157.347 18.2065 157.788 18.5161 158.305 18.7331C158.822 18.9438 159.406 19.0491 160.057 19.0491C160.708 19.0491 161.289 18.9438 161.8 18.7331C162.317 18.5161 162.754 18.2065 163.111 17.8044C163.475 17.4022 163.753 16.9139 163.944 16.3394C164.136 15.7586 164.232 15.1011 164.232 14.367ZM181.726 14.367C181.726 15.3819 181.554 16.3171 181.209 17.1724C180.871 18.0214 180.389 18.7523 179.763 19.3651C179.144 19.9779 178.397 20.4566 177.523 20.8013C176.648 21.146 175.678 21.3184 174.612 21.3184H169.269V7.42525H174.612C175.678 7.42525 176.648 7.59759 177.523 7.94229C178.397 8.28698 179.144 8.76892 179.763 9.38809C180.389 10.0009 180.871 10.7318 181.209 11.5807C181.554 12.4297 181.726 13.3585 181.726 14.367ZM178.777 14.367C178.777 13.6393 178.681 12.985 178.49 12.4042C178.298 11.8233 178.024 11.3318 177.666 10.9296C177.309 10.5275 176.871 10.2179 176.354 10.0009C175.844 9.78385 175.263 9.67534 174.612 9.67534H172.161V19.0683H174.612C175.263 19.0683 175.844 18.9629 176.354 18.7523C176.871 18.5353 177.309 18.2257 177.666 17.8235C178.024 17.415 178.298 16.9203 178.49 16.3394C178.681 15.7586 178.777 15.1011 178.777 14.367Z" fill="white"/>
</svg>
