<svg width="270" height="54" viewBox="0 0 270 54" fill="none" xmlns="http://www.w3.org/2000/svg">
<path fill-rule="evenodd" clip-rule="evenodd" d="M43.7348 9.85002L45.3636 22.1715L40.275 22.1918L43.7348 9.85002ZM27.6695 22.4268C26.9178 22.4268 26.2277 22.2924 25.5946 22.0269C24.9615 21.7615 24.4142 21.3769 23.9528 20.8709C23.4908 20.3643 23.1276 19.7436 22.8661 19.0083C22.6047 18.2729 22.4737 17.4314 22.4737 16.4837C22.4737 15.6264 22.5923 14.846 22.8295 14.1479C23.0667 13.4493 23.405 12.8529 23.8421 12.3542C24.2798 11.8567 24.8061 11.4681 25.4268 11.1948C26.048 10.9208 26.7467 10.7864 27.5227 10.7864C27.9389 10.7864 28.3145 10.8067 28.6494 10.8474C28.9848 10.8886 29.3028 10.9536 29.6049 11.044C29.9076 11.1332 30.2058 11.2478 30.4955 11.3907C30.7858 11.5336 31.092 11.7013 31.419 11.8973C31.6805 12.0605 31.9335 12.1424 32.1786 12.1424C32.3667 12.1424 32.5417 12.0933 32.7015 11.9956C32.8608 11.8973 32.9958 11.7623 33.1099 11.5912L34.3106 9.76928L34.3044 9.76304L39.0738 2.87969C40.1203 3.40831 41.1279 4.00301 42.0902 4.6587L36.337 25.1863L53.8238 25.1157C53.8644 25.7194 53.8853 26.3288 53.8853 26.9427C53.8853 27.5193 53.8673 28.0908 53.8317 28.6584H37.1932V28.6652H36.6837C36.3409 28.6652 36.0467 28.755 35.8016 28.9385C35.5565 29.1187 35.4011 29.3265 35.3362 29.5677L32.8851 38.9535C32.8122 39.2398 32.7422 39.5499 32.6728 39.8808C32.6033 40.2078 32.5344 40.5546 32.4689 40.9183C32.3955 40.5467 32.3096 40.1994 32.2113 39.873C32.1136 39.546 32.0193 39.2398 31.9295 38.9535L29.0622 29.5677C28.9724 29.2858 28.8132 29.0656 28.5805 28.9058C28.3478 28.7465 28.0496 28.6652 27.6904 28.6652H26.4649C26.1221 28.6652 25.8317 28.7589 25.5906 28.9425C25.3494 29.1266 25.1902 29.335 25.1168 29.5677L22.2252 38.9495C22.1354 39.2556 22.0416 39.5787 21.9433 39.9215C21.8451 40.2604 21.7553 40.6241 21.674 41.0121C21.6333 40.6365 21.5717 40.2728 21.4899 39.926C21.4085 39.5826 21.3267 39.2556 21.2448 38.9495L18.7942 29.5677C18.7208 29.2937 18.5655 29.0775 18.3244 28.9097C18.0838 28.7465 17.7816 28.6652 17.4218 28.6652H16.9723V28.6584H0.0536085C0.0180284 28.0908 0 27.5193 0 26.9427C0 26.3282 0.0208875 25.7188 0.0615506 25.1151L17.829 25.1863L13.6368 10.229C17.0265 6.97762 21.6287 4.97953 26.6969 4.97953C28.9809 4.97953 31.1699 5.38557 33.1957 6.1288L31.8035 8.13769C31.7284 8.10606 31.6517 8.07557 31.5738 8.04564C31.0226 7.83329 30.4182 7.66156 29.7648 7.53901C29.1113 7.41702 28.4127 7.35546 27.6695 7.35546C26.2316 7.35546 24.9326 7.58027 23.7687 8.02926C22.6047 8.47881 21.6124 9.10791 20.7912 9.91609C19.97 10.7294 19.337 11.6889 18.8959 12.8043C18.4548 13.9231 18.2345 15.1441 18.2345 16.4759C18.2345 17.7872 18.4672 18.9959 18.9286 20.1152C19.39 21.2301 20.0277 22.1941 20.8404 23.0068C21.6531 23.82 22.6127 24.4566 23.7235 24.918C24.835 25.38 26.0441 25.6126 27.3504 25.6126C28.0778 25.6126 28.7595 25.5759 29.3931 25.5025C30.0262 25.433 30.6226 25.3184 31.1818 25.1676C31.7414 25.0123 32.2684 24.8163 32.7625 24.5791C33.2567 24.3425 33.7306 24.0607 34.188 23.7297V16.1534H27.8406V18.4322C27.8406 18.6445 27.914 18.8202 28.0614 18.9591C28.2083 19.098 28.4127 19.1675 28.6742 19.1675H30.4385V21.8875C30.0466 22.0507 29.6298 22.1817 29.1888 22.28C28.7477 22.3777 28.2411 22.4268 27.6695 22.4268ZM36.2889 1.66545L34.9482 3.60038C32.4023 2.56121 29.6162 1.98909 26.6969 1.98909C21.3904 1.98909 16.5256 3.88047 12.7388 7.02564L12.0306 4.49948C16.3008 1.65702 21.4278 0 26.9427 0C30.2285 0 33.377 0.588443 36.2889 1.66545ZM35.2701 47.4098C32.7084 48.4856 29.8953 49.0803 26.9427 49.0803C24.0681 49.0803 21.3244 48.5167 18.8174 47.4939L19.7193 46.5304H23.205L26.6117 35.6287C26.6693 35.4576 26.7303 35.2735 26.7913 35.0736C26.8528 34.8736 26.9099 34.6568 26.9675 34.432C27.024 34.6568 27.0855 34.8736 27.1471 35.0736C27.2081 35.2735 27.2657 35.4576 27.3227 35.6287L30.6803 46.5304H34.4292L34.4337 46.5163L35.2701 47.4098ZM16.6493 49.8106C19.7792 51.2609 23.2667 52.0707 26.9427 52.0707C30.6956 52.0707 34.2518 51.227 37.4315 49.7191L38.7745 51.1547C35.203 52.9032 31.1875 53.8853 26.9427 53.8853C22.7736 53.8853 18.8264 52.9382 15.3034 51.2484L16.6493 49.8106ZM14.8629 31.6488L16.1551 35.8349L1.46161 35.7185C1.00923 34.4049 0.655679 33.0455 0.410006 31.6488H14.8629ZM17.1852 39.1726L18.5107 43.4677L12.6168 49.7654C11.4421 49.0267 10.3278 48.1993 9.2847 47.2928L17.1852 39.1726ZM35.4441 43.2424L36.7679 38.9535L44.752 47.1601C43.7168 48.0727 42.6115 48.9069 41.4447 49.6535L35.4441 43.2424ZM37.7297 35.8377L39.0224 31.6488H53.4753C53.2291 33.0466 52.8755 34.4066 52.4225 35.7214L37.7297 35.8377ZM46.5586 8.47313C50.059 12.1898 52.5158 16.9012 53.4584 22.1388L48.3681 22.1596L46.5586 8.47313ZM51.1869 38.7095C50.0557 41.0358 48.5997 43.1752 46.8777 45.0682L40.771 38.792L51.1869 38.7095ZM7.14428 45.2168C5.36188 43.287 3.85846 41.0956 2.6973 38.7072L13.3951 38.792L7.14428 45.2168ZM0.426938 22.1376C1.3989 16.7396 3.97816 11.8996 7.65196 8.13262L5.79728 22.1596L0.426938 22.1376ZM10.4312 9.85002L13.8904 22.1918L8.80184 22.1715L10.4312 9.85002Z" fill="#313131"/>
<path d="M79.1656 43.6058H79.9168V45.9005H79.1143V44.4293H74.6385V45.9005H73.8359V43.6058H74.4329C74.5973 43.455 74.7243 43.2404 74.8136 42.9626C74.9028 42.6853 74.9835 42.26 75.0553 41.6868C75.1275 41.1147 75.2145 40.1766 75.3179 38.8731H79.1656V43.6058ZM76.0995 39.6446C76.038 40.564 75.9748 41.279 75.9092 41.7901C75.8443 42.3012 75.7702 42.6921 75.6877 42.9626C75.6059 43.2337 75.4998 43.4483 75.3693 43.6058H78.3117V39.6446H76.0995ZM86.2952 41.6715C86.2952 41.7472 86.2884 41.8534 86.2749 41.9906H81.5314C81.6003 42.5051 81.8133 42.9185 82.1696 43.2303C82.5266 43.5426 82.9653 43.6985 83.486 43.6985C83.8706 43.6985 84.2118 43.6143 84.51 43.4465C84.8082 43.2782 85.0465 43.04 85.225 42.7316H86.1411C85.9078 43.3077 85.5576 43.7549 85.0911 44.074C84.6246 44.3931 84.0898 44.5524 83.486 44.5524C82.6841 44.5524 82.012 44.2745 81.4704 43.7193C80.9282 43.1636 80.6571 42.4723 80.6571 41.6461C80.6571 40.8198 80.9282 40.1302 81.4704 39.5779C82.012 39.0256 82.6841 38.75 83.486 38.75C84.3162 38.75 84.9917 39.0307 85.513 39.5937C86.0343 40.1557 86.2952 40.8486 86.2952 41.6715ZM83.486 39.583C83.1568 39.583 82.8575 39.648 82.5864 39.7784C82.3153 39.9089 82.0911 40.0958 81.9126 40.3392C81.7342 40.5826 81.6145 40.8622 81.5524 41.1779H85.4102C85.3486 40.8554 85.2284 40.5725 85.0499 40.3291C84.872 40.0857 84.649 39.9004 84.3818 39.7734C84.1141 39.6463 83.8153 39.583 83.486 39.583ZM90.5445 38.75C91.3741 38.75 92.0581 39.0239 92.5968 39.5728C93.1351 40.1212 93.4045 40.8142 93.4045 41.6512C93.4045 42.4808 93.1351 43.1721 92.5968 43.7245C92.0581 44.2762 91.3741 44.5524 90.5445 44.5524C89.7075 44.5524 89.018 44.2643 88.4764 43.6883V46.4144H87.6015V38.8731H88.1985L88.373 39.7276C88.6339 39.4187 88.9513 39.1781 89.3252 39.007C89.699 38.8353 90.1051 38.75 90.5445 38.75ZM90.4824 43.7086C91.072 43.7086 91.5593 43.5132 91.9434 43.1224C92.3274 42.7316 92.5195 42.2414 92.5195 41.6512C92.5195 41.061 92.3274 40.5708 91.9434 40.1799C91.5593 39.7886 91.072 39.5937 90.4824 39.5937C89.8928 39.5937 89.4036 39.7903 89.0162 40.185C88.6288 40.5792 88.4351 41.0678 88.4351 41.6512C88.4351 42.0352 88.5227 42.3848 88.6972 42.7005C88.8723 43.0162 89.1173 43.263 89.433 43.4409C89.7488 43.6194 90.0983 43.7086 90.4824 43.7086ZM99.927 41.6715C99.927 41.7472 99.9201 41.8534 99.9066 41.9906H95.1638C95.2321 42.5051 95.445 42.9185 95.8013 43.2303C96.1583 43.5426 96.5971 43.6985 97.1184 43.6985C97.5024 43.6985 97.8435 43.6143 98.1417 43.4465C98.4404 43.2782 98.6788 43.04 98.8572 42.7316H99.7728C99.5395 43.3077 99.1899 43.7549 98.7234 44.074C98.2569 44.3931 97.7221 44.5524 97.1184 44.5524C96.3158 44.5524 95.6438 44.2745 95.1022 43.7193C94.56 43.1636 94.2895 42.4723 94.2895 41.6461C94.2895 40.8198 94.56 40.1302 95.1022 39.5779C95.6438 39.0256 96.3158 38.75 97.1184 38.75C97.9486 38.75 98.6241 39.0307 99.1454 39.5937C99.6666 40.1557 99.927 40.8486 99.927 41.6715ZM97.1184 39.583C96.7891 39.583 96.4893 39.648 96.2182 39.7784C95.9471 39.9089 95.7229 40.0958 95.5444 40.3392C95.366 40.5826 95.2462 40.8622 95.1841 41.1779H99.0425C98.9804 40.8554 98.8606 40.5725 98.6822 40.3291C98.5037 40.0857 98.2812 39.9004 98.0135 39.7734C97.7458 39.6463 97.4476 39.583 97.1184 39.583ZM104.804 41.5478C105.085 41.6512 105.31 41.8223 105.478 42.0629C105.646 42.3029 105.729 42.574 105.729 42.8756C105.729 43.3212 105.567 43.6917 105.241 43.9865C104.915 44.2819 104.509 44.4293 104.022 44.4293H101.234V38.8731H103.991C104.451 38.8731 104.825 39.0052 105.113 39.2695C105.401 39.5333 105.545 39.871 105.545 40.2828C105.545 40.468 105.514 40.6431 105.452 40.8074C105.39 40.9723 105.305 41.1181 105.195 41.2446C105.085 41.3716 104.954 41.4727 104.804 41.5478ZM104.681 40.437C104.681 40.2111 104.605 40.0309 104.454 39.897C104.303 39.7632 104.108 39.6965 103.867 39.6965H102.088V41.1677H103.867C104.115 41.1677 104.312 41.1005 104.459 40.9673C104.607 40.8334 104.681 40.6567 104.681 40.437ZM103.919 43.6058C104.09 43.6058 104.247 43.5697 104.388 43.4979C104.528 43.4257 104.635 43.328 104.711 43.2049C104.787 43.0812 104.825 42.9423 104.825 42.7881C104.825 42.6333 104.787 42.4927 104.711 42.3662C104.635 42.2391 104.528 42.1414 104.388 42.0731C104.247 42.0042 104.087 41.9703 103.909 41.9703H102.088V43.6058H103.919ZM108.59 38.8731H111.141V44.4293H110.277V42.2995H108.888L107.571 44.4293H106.604L107.994 42.1758C107.63 42.0595 107.342 41.8602 107.129 41.5789C106.916 41.2982 106.81 40.9689 106.81 40.5911C106.81 40.0975 106.978 39.6875 107.314 39.3622C107.65 39.0363 108.075 38.8731 108.59 38.8731ZM108.662 41.4557H110.277V39.7169H108.662C108.374 39.7169 108.14 39.7976 107.962 39.9586C107.784 40.1195 107.695 40.3291 107.695 40.586C107.695 40.8436 107.784 41.0526 107.962 41.2135C108.14 41.375 108.374 41.4557 108.662 41.4557ZM116.728 38.8731H117.582V44.4293H116.728V41.9703H113.755V44.4293H112.9V38.8731H113.755V41.1468H116.728V38.8731ZM123.178 38.8731H124.032V44.4293H123.178V41.9703H120.205V44.4293H119.351V38.8731H120.205V41.1468H123.178V38.8731ZM128.035 40.6222C128.618 40.6222 129.094 40.799 129.465 41.1525C129.835 41.5055 130.02 41.9669 130.02 42.5362C130.02 43.0914 129.835 43.546 129.465 43.899C129.094 44.2525 128.618 44.4293 128.035 44.4293H125.802V38.8731H126.656V40.6222H128.035ZM131.029 38.8731H131.903V44.4293H131.029V38.8731ZM127.921 43.6471C128.285 43.6471 128.576 43.5443 128.796 43.3387C129.015 43.1326 129.125 42.8637 129.125 42.5305C129.125 42.1979 129.015 41.9274 128.796 41.7178C128.576 41.5089 128.285 41.4044 127.921 41.4044H126.656V43.6471H127.921ZM138.868 41.6715C138.868 41.7472 138.861 41.8534 138.847 41.9906H134.104C134.173 42.5051 134.385 42.9185 134.742 43.2303C135.099 43.5426 135.538 43.6985 136.059 43.6985C136.443 43.6985 136.785 43.6143 137.083 43.4465C137.381 43.2782 137.619 43.04 137.798 42.7316H138.714C138.48 43.3077 138.13 43.7549 137.664 44.074C137.197 44.3931 136.663 44.5524 136.059 44.5524C135.256 44.5524 134.584 44.2745 134.043 43.7193C133.501 43.1636 133.23 42.4723 133.23 41.6461C133.23 40.8198 133.501 40.1302 134.043 39.5779C134.584 39.0256 135.256 38.75 136.059 38.75C136.889 38.75 137.565 39.0307 138.086 39.5937C138.607 40.1557 138.868 40.8486 138.868 41.6715ZM136.059 39.583C135.73 39.583 135.43 39.648 135.159 39.7784C134.888 39.9089 134.663 40.0958 134.485 40.3392C134.307 40.5826 134.187 40.8622 134.125 41.1779H137.983C137.922 40.8554 137.801 40.5725 137.623 40.3291C137.445 40.0857 137.222 39.9004 136.954 39.7734C136.687 39.6463 136.388 39.583 136.059 39.583ZM146.44 44.4293L144.537 41.9392H143.745V44.4293H142.87V38.8731H143.745V41.1265H144.547L146.265 38.8731H147.325L145.298 41.5376L147.531 44.4293H146.44ZM153.004 38.8731H153.704V44.4293H152.974L152.88 43.5855C152.62 43.8939 152.303 44.1322 151.929 44.3005C151.556 44.4688 151.146 44.5524 150.699 44.5524C149.883 44.5524 149.201 44.2762 148.652 43.7245C148.104 43.1721 147.829 42.4808 147.829 41.6512C147.829 40.8216 148.104 40.1302 148.652 39.5779C149.201 39.0256 149.883 38.75 150.699 38.75C151.152 38.75 151.566 38.8353 151.94 39.007C152.313 39.1781 152.63 39.4187 152.891 39.7276L153.004 38.8731ZM149.306 43.1173C149.693 43.5115 150.181 43.7086 150.772 43.7086C151.362 43.7086 151.849 43.5132 152.233 43.1224C152.617 42.7316 152.809 42.2414 152.809 41.6512C152.809 41.061 152.617 40.5708 152.233 40.1799C151.849 39.7886 151.362 39.5937 150.772 39.5937C150.181 39.5937 149.693 39.7903 149.306 40.185C148.918 40.5792 148.724 41.0678 148.724 41.6512C148.724 42.234 148.918 42.7231 149.306 43.1173ZM158.406 38.75C159.235 38.75 159.919 39.0239 160.458 39.5728C160.996 40.1212 161.266 40.8142 161.266 41.6512C161.266 42.4808 160.996 43.1721 160.458 43.7245C159.919 44.2762 159.235 44.5524 158.406 44.5524C157.569 44.5524 156.88 44.2643 156.337 43.6883V46.4144H155.463V38.8731H156.06L156.235 39.7276C156.496 39.4187 156.812 39.1781 157.186 39.007C157.56 38.8353 157.967 38.75 158.406 38.75ZM158.343 43.7086C158.933 43.7086 159.42 43.5132 159.804 43.1224C160.188 42.7316 160.381 42.2414 160.381 41.6512C160.381 41.061 160.188 40.5708 159.804 40.1799C159.42 39.7886 158.933 39.5937 158.343 39.5937C157.754 39.5937 157.265 39.7903 156.878 40.185C156.49 40.5792 156.296 41.0678 156.296 41.6512C156.296 42.0352 156.384 42.3848 156.559 42.7005C156.734 43.0162 156.979 43.263 157.294 43.4409C157.61 43.6194 157.96 43.7086 158.343 43.7086ZM166.687 38.8731V39.6655H164.62V44.4293H163.766V39.6655H161.698V38.8731H166.687ZM169.98 40.6222C170.563 40.6222 171.04 40.799 171.41 41.1525C171.78 41.5055 171.966 41.9669 171.966 42.5362C171.966 43.0914 171.78 43.546 171.41 43.899C171.04 44.2525 170.563 44.4293 169.98 44.4293H167.747V38.8731H168.601V40.6222H169.98ZM172.974 38.8731H173.848V44.4293H172.974V38.8731ZM169.866 43.6471C170.23 43.6471 170.521 43.5443 170.741 43.3387C170.961 43.1326 171.07 42.8637 171.07 42.5305C171.07 42.1979 170.961 41.9274 170.741 41.7178C170.521 41.5089 170.23 41.4044 169.866 41.4044H168.601V43.6471H169.866ZM182.398 38.8731H182.882V44.4293H182.058V40.4578L178.818 44.4293H178.313V38.8731H179.147V42.8134L182.398 38.8731ZM191.431 38.8731H191.915V44.4293H191.091V40.4578L187.851 44.4293H187.346V38.8731H188.18V42.8134L191.431 38.8731ZM196.575 41.497C197.083 41.7715 197.336 42.2239 197.336 42.8547C197.336 43.184 197.246 43.4771 197.064 43.7346C196.882 43.9921 196.629 44.1926 196.303 44.3367C195.977 44.4807 195.612 44.5524 195.207 44.5524C194.617 44.5524 194.132 44.4016 193.751 44.1C193.37 43.7978 193.156 43.3935 193.108 42.8857H193.9C193.955 43.1461 194.099 43.3505 194.333 43.4979C194.566 43.6453 194.857 43.7193 195.207 43.7193C195.577 43.7193 195.883 43.6335 196.123 43.4618C196.363 43.2901 196.483 43.0642 196.483 42.7829C196.483 42.522 196.381 42.3063 196.179 42.1346C195.977 41.9635 195.721 41.8777 195.413 41.8777H194.589V41.1677H195.413C195.701 41.1677 195.932 41.0938 196.108 40.9464C196.282 40.7989 196.37 40.6086 196.37 40.3754C196.37 40.1212 196.263 39.9157 196.051 39.7581C195.838 39.6005 195.557 39.5214 195.207 39.5214C194.898 39.5214 194.641 39.5903 194.435 39.7276C194.23 39.8643 194.099 40.0495 194.045 40.2828H193.252C193.28 39.9806 193.381 39.7135 193.555 39.4802C193.73 39.247 193.964 39.0668 194.256 38.9403C194.547 38.8133 194.871 38.75 195.228 38.75C195.797 38.75 196.267 38.8974 196.637 39.1922C197.007 39.487 197.193 39.8575 197.193 40.3031C197.193 40.8385 196.987 41.2361 196.575 41.497ZM203.355 43.6058H204.106V45.9005H203.304V44.4293H198.829V45.9005H198.026V43.6058H198.623C198.787 43.455 198.914 43.2404 199.003 42.9626C199.092 42.6853 199.173 42.26 199.245 41.6868C199.317 41.1147 199.405 40.1766 199.507 38.8731H203.355V43.6058ZM200.289 39.6446C200.228 40.564 200.164 41.279 200.099 41.7901C200.034 42.3012 199.96 42.6921 199.878 42.9626C199.795 43.2337 199.689 43.4483 199.559 43.6058H202.501V39.6446H200.289ZM210.485 41.6715C210.485 41.7472 210.478 41.8534 210.465 41.9906H205.722C205.79 42.5051 206.003 42.9185 206.36 43.2303C206.716 43.5426 207.155 43.6985 207.676 43.6985C208.06 43.6985 208.401 43.6143 208.7 43.4465C208.998 43.2782 209.237 43.04 209.415 42.7316H210.331C210.097 43.3077 209.748 43.7549 209.281 44.074C208.815 44.3931 208.28 44.5524 207.676 44.5524C206.874 44.5524 206.202 44.2745 205.66 43.7193C205.118 43.1636 204.847 42.4723 204.847 41.6461C204.847 40.8198 205.118 40.1302 205.66 39.5779C206.202 39.0256 206.874 38.75 207.676 38.75C208.506 38.75 209.182 39.0307 209.703 39.5937C210.224 40.1557 210.485 40.8486 210.485 41.6715ZM207.676 39.583C207.347 39.583 207.047 39.648 206.776 39.7784C206.505 39.9089 206.281 40.0958 206.102 40.3392C205.924 40.5826 205.804 40.8622 205.742 41.1779H209.6C209.538 40.8554 209.418 40.5725 209.24 40.3291C209.062 40.0857 208.839 39.9004 208.571 39.7734C208.304 39.6463 208.005 39.583 207.676 39.583ZM212.604 38.8731H216.247V44.4293H215.372V39.6344H213.335L213.047 42.4435C212.971 43.1772 212.783 43.6968 212.481 44.0023C212.179 44.3073 211.726 44.4598 211.123 44.4598H210.968V43.6369H211.164C211.479 43.6369 211.719 43.5459 211.884 43.3641C212.049 43.1822 212.151 42.8925 212.193 42.4944L212.604 38.8731ZM222.09 38.8731H222.574V44.4293H221.751V40.4578L218.51 44.4293H218.006V38.8731H218.839V42.8134L222.09 38.8731ZM225.794 38.8731H228.346V44.4293H227.481V42.2995H226.093L224.776 44.4293H223.809L225.197 42.1758C224.834 42.0595 224.546 41.8602 224.333 41.5789C224.12 41.2982 224.014 40.9689 224.014 40.5911C224.014 40.0975 224.183 39.6875 224.519 39.3622C224.855 39.0363 225.28 38.8731 225.794 38.8731ZM225.866 41.4557H227.481V39.7169H225.866C225.578 39.7169 225.345 39.7976 225.166 39.9586C224.988 40.1195 224.899 40.3291 224.899 40.586C224.899 40.8436 224.988 41.0526 225.166 41.2135C225.345 41.375 225.578 41.4557 225.866 41.4557Z" fill="#313131"/>
<path d="M84.3914 20.7667H91.6965V29.4397C90.6435 30.2107 89.52 30.77 88.326 31.1179C87.1414 31.4658 85.9004 31.6397 84.603 31.6397C82.9107 31.6397 81.3688 31.3765 79.9774 30.85C78.5953 30.3141 77.4107 29.5807 76.4235 28.65C75.4364 27.7098 74.6748 26.6004 74.1389 25.3218C73.603 24.0338 73.3351 22.6376 73.3351 21.1334C73.3351 19.6009 73.5889 18.1954 74.0966 16.9167C74.6043 15.6287 75.3282 14.5193 76.2684 13.5885C77.218 12.6578 78.3603 11.9339 79.6953 11.4168C81.0397 10.8997 82.5393 10.6411 84.194 10.6411C85.0495 10.6411 85.8534 10.7116 86.6055 10.8527C87.3576 10.9937 88.0487 11.1864 88.6786 11.4309C89.3179 11.6753 89.9008 11.9668 90.4273 12.3052C90.9538 12.6437 91.4239 13.0103 91.8375 13.4052L90.4555 15.5065C90.2392 15.8355 89.9572 16.0377 89.6093 16.1129C89.2709 16.1881 88.9042 16.1035 88.5093 15.859C88.1333 15.6334 87.776 15.4407 87.4376 15.2808C87.1085 15.1116 86.77 14.9753 86.4222 14.8719C86.0743 14.7685 85.7077 14.6932 85.3222 14.6462C84.9367 14.5992 84.5042 14.5757 84.0248 14.5757C83.1316 14.5757 82.3278 14.7355 81.6132 15.0552C80.8987 15.3655 80.2876 15.8073 79.7799 16.3808C79.2816 16.9543 78.8962 17.6454 78.6235 18.4539C78.3509 19.253 78.2145 20.1462 78.2145 21.1334C78.2145 22.224 78.365 23.1923 78.6658 24.0385C78.9667 24.8846 79.3897 25.5991 79.935 26.182C80.4897 26.765 81.1479 27.2115 81.9094 27.5218C82.6803 27.8226 83.5312 27.9731 84.4619 27.9731C85.0354 27.9731 85.5525 27.9167 86.0132 27.8038C86.4833 27.691 86.9393 27.5406 87.3811 27.3526V24.2359H85.3504C85.0495 24.2359 84.8145 24.156 84.6453 23.9962C84.476 23.8363 84.3914 23.6342 84.3914 23.3898V20.7667ZM101.587 20.527C102.235 20.527 102.785 20.447 103.237 20.2872C103.697 20.118 104.073 19.8876 104.365 19.5962C104.656 19.3047 104.868 18.9663 105 18.5808C105.131 18.186 105.197 17.7629 105.197 17.3116C105.197 16.409 104.901 15.7039 104.309 15.1962C103.726 14.6885 102.818 14.4347 101.587 14.4347H99.6688V20.527H101.587ZM111.712 31.4141H107.397C106.598 31.4141 106.024 31.1132 105.676 30.5115L102.264 24.5462C102.104 24.2923 101.925 24.109 101.728 23.9962C101.53 23.8739 101.248 23.8128 100.882 23.8128H99.6688V31.4141H94.9022V10.8668H101.587C103.072 10.8668 104.337 11.0219 105.38 11.3322C106.433 11.633 107.289 12.0561 107.947 12.6014C108.614 13.1467 109.099 13.7907 109.399 14.5334C109.7 15.2761 109.851 16.0847 109.851 16.959C109.851 17.6266 109.761 18.2565 109.583 18.8488C109.404 19.4411 109.141 19.9911 108.793 20.4988C108.445 20.997 108.013 21.4436 107.496 21.8385C106.988 22.2334 106.4 22.5577 105.733 22.8116C106.043 22.9714 106.335 23.1735 106.607 23.418C106.88 23.653 107.124 23.9351 107.341 24.2641L111.712 31.4141ZM118.234 14.5334V19.3283H124.693V22.8539H118.234V27.7474H126.667V31.4141H113.439V10.8668H126.667V14.5334H118.234ZM134.402 14.5334V19.3283H140.861V22.8539H134.402V27.7474H142.836V31.4141H129.607V10.8668H142.836V14.5334H134.402ZM163.714 10.8668V31.4141H161.232C160.865 31.4141 160.555 31.3577 160.301 31.2448C160.057 31.1226 159.812 30.9158 159.568 30.6243L149.88 18.3693C149.917 18.7359 149.941 19.0932 149.95 19.4411C149.969 19.7795 149.978 20.0992 149.978 20.4V31.4141H145.776V10.8668H148.286C148.493 10.8668 148.667 10.8762 148.808 10.895C148.949 10.9138 149.076 10.9514 149.188 11.0078C149.301 11.0548 149.409 11.1253 149.513 11.2193C149.616 11.3134 149.734 11.4403 149.865 11.6001L159.638 23.9398C159.591 23.5449 159.559 23.1641 159.54 22.7975C159.521 22.4214 159.512 22.0688 159.512 21.7398V10.8668H163.714ZM202.222 10.8668L195.876 31.4141H191.56L187.696 18.6795C187.621 18.4821 187.551 18.2659 187.485 18.0308C187.419 17.7864 187.353 17.5325 187.287 17.2693C187.222 17.5325 187.156 17.7864 187.09 18.0308C187.024 18.2659 186.954 18.4821 186.878 18.6795L182.958 31.4141H178.643L172.296 10.8668H176.302C176.715 10.8668 177.058 10.9608 177.331 11.1488C177.613 11.3369 177.796 11.586 177.881 11.8963L180.702 22.6141C180.786 22.9526 180.871 23.3239 180.955 23.7282C181.04 24.1231 181.125 24.5368 181.209 24.9692C181.378 24.0855 181.585 23.3004 181.83 22.6141L185.158 11.8963C185.243 11.633 185.421 11.398 185.694 11.1911C185.976 10.9749 186.314 10.8668 186.709 10.8668H188.119C188.533 10.8668 188.867 10.9655 189.121 11.1629C189.375 11.351 189.567 11.5954 189.699 11.8963L192.999 22.6141C193.243 23.2722 193.45 24.0197 193.619 24.8564C193.695 24.4333 193.77 24.0385 193.845 23.6718C193.93 23.2957 194.014 22.9432 194.099 22.6141L196.919 11.8963C196.995 11.6236 197.173 11.3839 197.455 11.177C197.737 10.9702 198.076 10.8668 198.471 10.8668H202.222ZM223.922 21.1334C223.922 22.6188 223.664 24.0009 223.146 25.2795C222.639 26.5581 221.92 27.6722 220.989 28.6218C220.058 29.5619 218.935 30.3 217.618 30.8359C216.311 31.3718 214.859 31.6397 213.261 31.6397C211.662 31.6397 210.205 31.3718 208.889 30.8359C207.573 30.3 206.444 29.5619 205.504 28.6218C204.573 27.6722 203.85 26.5581 203.332 25.2795C202.825 24.0009 202.571 22.6188 202.571 21.1334C202.571 19.6479 202.825 18.2659 203.332 16.9872C203.85 15.7086 204.573 14.5992 205.504 13.6591C206.444 12.7189 207.573 11.9809 208.889 11.445C210.205 10.9091 211.662 10.6411 213.261 10.6411C214.859 10.6411 216.311 10.9138 217.618 11.4591C218.935 11.995 220.058 12.733 220.989 13.6732C221.92 14.6133 222.639 15.7227 223.146 17.0013C223.664 18.28 223.922 19.6573 223.922 21.1334ZM219.043 21.1334C219.043 20.118 218.911 19.206 218.648 18.3975C218.385 17.5795 218.004 16.8885 217.505 16.3244C217.017 15.7603 216.415 15.3279 215.7 15.027C214.986 14.7261 214.173 14.5757 213.261 14.5757C212.339 14.5757 211.517 14.7261 210.793 15.027C210.078 15.3279 209.472 15.7603 208.973 16.3244C208.485 16.8885 208.109 17.5795 207.845 18.3975C207.582 19.206 207.45 20.118 207.45 21.1334C207.45 22.1581 207.582 23.0795 207.845 23.8974C208.109 24.706 208.485 25.3923 208.973 25.9564C209.472 26.5205 210.078 26.953 210.793 27.2538C211.517 27.5453 212.339 27.691 213.261 27.691C214.173 27.691 214.986 27.5453 215.7 27.2538C216.415 26.953 217.017 26.5205 217.505 25.9564C218.004 25.3923 218.385 24.706 218.648 23.8974C218.911 23.0795 219.043 22.1581 219.043 21.1334ZM246.894 21.1334C246.894 22.6188 246.635 24.0009 246.118 25.2795C245.61 26.5581 244.891 27.6722 243.96 28.6218C243.03 29.5619 241.906 30.3 240.59 30.8359C239.283 31.3718 237.83 31.6397 236.232 31.6397C234.634 31.6397 233.177 31.3718 231.86 30.8359C230.544 30.3 229.416 29.5619 228.476 28.6218C227.545 27.6722 226.821 26.5581 226.304 25.2795C225.796 24.0009 225.543 22.6188 225.543 21.1334C225.543 19.6479 225.796 18.2659 226.304 16.9872C226.821 15.7086 227.545 14.5992 228.476 13.6591C229.416 12.7189 230.544 11.9809 231.86 11.445C233.177 10.9091 234.634 10.6411 236.232 10.6411C237.83 10.6411 239.283 10.9138 240.59 11.4591C241.906 11.995 243.03 12.733 243.96 13.6732C244.891 14.6133 245.61 15.7227 246.118 17.0013C246.635 18.28 246.894 19.6573 246.894 21.1334ZM242.014 21.1334C242.014 20.118 241.883 19.206 241.619 18.3975C241.356 17.5795 240.975 16.8885 240.477 16.3244C239.988 15.7603 239.386 15.3279 238.672 15.027C237.957 14.7261 237.144 14.5757 236.232 14.5757C235.311 14.5757 234.488 14.7261 233.764 15.027C233.05 15.3279 232.443 15.7603 231.945 16.3244C231.456 16.8885 231.08 17.5795 230.817 18.3975C230.554 19.206 230.422 20.118 230.422 21.1334C230.422 22.1581 230.554 23.0795 230.817 23.8974C231.08 24.706 231.456 25.3923 231.945 25.9564C232.443 26.5205 233.05 26.953 233.764 27.2538C234.488 27.5453 235.311 27.691 236.232 27.691C237.144 27.691 237.957 27.5453 238.672 27.2538C239.386 26.953 239.988 26.5205 240.477 25.9564C240.975 25.3923 241.356 24.706 241.619 23.8974C241.883 23.0795 242.014 22.1581 242.014 21.1334ZM268.342 21.1334C268.342 22.6188 268.084 23.9915 267.567 25.2513C267.059 26.5017 266.34 27.5876 265.409 28.509C264.478 29.4209 263.355 30.1354 262.038 30.6525C260.732 31.1602 259.279 31.4141 257.681 31.4141H249.699V10.8668H257.681C259.279 10.8668 260.732 11.1253 262.038 11.6424C263.355 12.1595 264.478 12.874 265.409 13.786C266.34 14.6979 267.059 15.7838 267.567 17.0437C268.084 18.2941 268.342 19.6573 268.342 21.1334ZM263.463 21.1334C263.463 20.118 263.331 19.2013 263.068 18.3834C262.805 17.5654 262.424 16.8744 261.926 16.3103C261.437 15.7368 260.835 15.2996 260.12 14.9988C259.406 14.6885 258.593 14.5334 257.681 14.5334H254.494V27.7474H257.681C258.593 27.7474 259.406 27.597 260.12 27.2961C260.835 26.9859 261.437 26.5487 261.926 25.9846C262.424 25.4111 262.805 24.7154 263.068 23.8974C263.331 23.0795 263.463 22.1581 263.463 21.1334Z" fill="#313131"/>
</svg>
