<svg width="31" height="30" viewBox="0 0 31 30" fill="none" xmlns="http://www.w3.org/2000/svg">
<circle cx="15.0156" cy="15" r="14.5" stroke="white"/>
<circle cx="15" cy="12" r="5.5" stroke="white"/>
<mask id="mask0_417_6344" style="mask-type:alpha" maskUnits="userSpaceOnUse" x="0" y="0" width="31" height="30">
<circle cx="15.0156" cy="15" r="15" fill="#D9D9D9"/>
</mask>
<g mask="url(#mask0_417_6344)">
<path d="M25.5156 27.5C25.5156 29.3571 24.4119 31.0949 22.5121 32.3902C20.6149 33.6838 17.966 34.5 15.0156 34.5C12.0653 34.5 9.41639 33.6838 7.51912 32.3902C5.61931 31.0949 4.51562 29.3571 4.51562 27.5C4.51562 25.6429 5.61931 23.9051 7.51912 22.6098C9.41639 21.3162 12.0653 20.5 15.0156 20.5C17.966 20.5 20.6149 21.3162 22.5121 22.6098C24.4119 23.9051 25.5156 25.6429 25.5156 27.5Z" stroke="white"/>
</g>
</svg>
